<svg xmlns="http://www.w3.org/2000/svg" xmlns:xlink="http://www.w3.org/1999/xlink" width="78" height="86" viewBox="0 0 78 86"><defs><path id="a" d="M0 0h78v86H0z"/></defs><clipPath id="b"><use xlink:href="#a" overflow="visible"/></clipPath><path clip-path="url(#b)" d="M14 1v27H1c-.663 0-1 .581-1 1v49c0 4.415 3.586 8 8 8h62c4.415 0 8-3.585 8-8V1c0-.524-.476-1-1-1H15c-.664 0-1 .581-1 1m2 1h60v76c0 3.341-2.657 6-6 6H13.282A7.988 7.988 0 0 0 16 78V2zm9 8c-.739 0-1 .529-1 1s.474 1 1 1h41.999c.529.007 1-.472 1-1s-.471-1.007-1-1H25zm0 10c-.764 0-1 .529-1 1s.474 1 1 1h15.999c.529.007 1-.472 1-1s-.471-1.007-1-1H25zm25.813 0c-.524.049-.955.57-.906 1.094.049.523.57.955 1.093.906h16c.529.007 1-.472 1-1s-.471-1.007-1-1H51a.974.974 0 0 0-.187 0M2 30h12v48c0 3.341-2.658 6-6 6-3.341 0-6-2.659-6-6V30zm23 4c-.764 0-1 .529-1 1s.474 1 1 1h41.999c.529.007 1-.472 1-1s-.471-1.007-1-1H25zm0 10c-.764 0-1 .529-1 1s.474 1 1 1h41.999c.529.007 1-.472 1-1s-.471-1.007-1-1H25zm0 10c-.764 0-1 .529-1 1s.474 1 1 1h41.999c.529.007 1-.472 1-1s-.471-1.007-1-1H25zm0 10c-.739 0-1 .529-1 1s.474 1 1 1h15.999c.529.007 1-.472 1-1s-.471-1.007-1-1H25zm25.813 0c-.524.049-.955.57-.906 1.094s.57.955 1.093.906h16c.529.007 1-.472 1-1s-.471-1.007-1-1H51a.974.974 0 0 0-.187 0M25 74c-.764 0-1 .529-1 1s.474 1 1 1h15.999c.529.007 1-.472 1-1s-.471-1.007-1-1H25zm25.813 0c-.524.049-.955.57-.906 1.094s.57.955 1.093.906h16c.529.007 1-.472 1-1s-.471-1.007-1-1H51a.974.974 0 0 0-.187 0"/></svg>