<svg xmlns="http://www.w3.org/2000/svg" xmlns:xlink="http://www.w3.org/1999/xlink" width="47" height="58.996" viewBox="0 0 47 58.996"><defs><path id="a" d="M0 0h47v58.996H0z"/></defs><clipPath id="b"><use xlink:href="#a" overflow="visible"/></clipPath><path clip-path="url(#b)" fill="#2F07AA" d="M43.293 56l2.854 2.854a.512.512 0 0 0 .707 0 .502.502 0 0 0 0-.708L44 55.293v-35l-5-5V0H0v51h5v5h38.293zM43 54.293l-8.692-8.692.296-.351a11.336 11.336 0 0 0 2.678-7.298c0-6.246-5.082-11.328-11.328-11.328s-11.328 5.082-11.328 11.328S19.708 49.28 25.954 49.28c2.66 0 5.251-.951 7.297-2.677l.351-.296L42.293 55H6V6h22v15h15v33.293zm-17.047-6.012c-5.695 0-10.328-4.633-10.328-10.328 0-5.694 4.633-10.328 10.328-10.328s10.328 4.633 10.328 10.328c0 5.695-4.633 10.328-10.328 10.328M42.293 20H29V6.707L42.293 20zM1 50V1h37v13.293L28.707 5H5v45H1z"/><path clip-path="url(#b)" fill="#2F07AA" d="M20.625 34a.5.5 0 0 0 0 1h6a.5.5 0 0 0 0-1h-6zM20.819 37c-.383 0-.694.224-.694.5 0 .275.311.5.694.5h8.33c.383 0 .694-.225.694-.5 0-.276-.312-.5-.694-.5h-8.33zM20.625 41h12c.275 0 .5-.226.5-.5 0-.275-.225-.5-.5-.5h-12a.5.5 0 0 0 0 1"/></svg>