<svg xmlns="http://www.w3.org/2000/svg" xmlns:xlink="http://www.w3.org/1999/xlink" width="89.32" height="78.33" viewBox="0 0 89.32 78.33"><defs><path id="a" d="M0 0h89.32v78.33H0z"/></defs><clipPath id="b"><use xlink:href="#a" overflow="visible"/></clipPath><path clip-path="url(#b)" d="M89.32 39.169a.858.858 0 0 0-.852-.863h-8.391l-.073-.074C73.423 31.631 67.916 21.97 63.169 8.698l-.039-.108.059-.1 4.113-7.195a.87.87 0 0 0-.313-1.18.851.851 0 0 0-1.164.316l-4.193 7.333-.099.028c-5.615 1.58-11.293 2.38-16.874 2.38s-11.259-.8-16.875-2.38l-.098-.028L23.493.431a.852.852 0 0 0-.519-.401.843.843 0 0 0-.644.086.868.868 0 0 0-.312 1.179l4.176 7.304-.034.105c-3.371 10.254-9.054 20.183-16.89 29.512l-.075.09H.852a.858.858 0 0 0-.852.863c0 .475.382.862.852.862H9.22l.074.08c7.656 8.245 13.332 18.174 16.873 29.516l.032.104-4.18 7.31a.87.87 0 0 0 .312 1.18.869.869 0 0 0 1.163-.314l4.179-7.311.108-.023a76.555 76.555 0 0 1 16.527-1.806c5.577 0 11.375.61 17.231 1.813l.111.023 4.176 7.303a.867.867 0 0 0 1.164.313.87.87 0 0 0 .312-1.179l-4.174-7.298.037-.108c3.677-10.786 9.356-20.716 16.88-29.516l.075-.088h8.349a.856.856 0 0 0 .851-.861m-27.299-28.64l.186.501c4.339 11.673 9.279 20.458 15.103 26.857l.381.419h-7.712l-.073-.074c-4.599-4.649-8.454-11.42-11.787-20.701l-.039-.108 3.941-6.894zM44.66 37.447L38.9 27.374l.535.104c3.467.672 6.984.672 10.45 0l.535-.104-5.76 10.073zm7.339-9.391l.191.482c1.538 3.872 3.234 6.934 5.186 9.361l.326.407H46.138l5.861-10.25zm-8.816 10.25H31.454l.307-.402c2.29-2.991 4.102-6.132 5.386-9.338l.192-.48 5.844 10.22zm0 1.725l-5.825 10.185-.188-.495c-1.297-3.424-3.075-6.547-5.283-9.281l-.328-.408h11.624zm1.477.859l5.844 10.218-.511-.076c-3.706-.558-7.16-.563-10.649-.028l-.512.079L44.66 40.89zm1.478-.859h11.713l-.31.402a39.689 39.689 0 0 0-5.357 9.355l-.192.478-5.854-10.235zm7.005-13.797l-.039-.108 3.866-6.763.188.495c2.925 7.715 6.227 13.614 10.092 18.033l.362.415h-7.586l-.074-.076c-2.641-2.722-4.868-6.646-6.809-11.996m-1.537-.931l-.102.027c-2.284.62-4.587.934-6.845.934a26.15 26.15 0 0 1-6.844-.934l-.1-.027-3.774-6.599.557.128a45.452 45.452 0 0 0 10.161 1.173c3.358 0 6.776-.395 10.161-1.173l.556-.128-3.77 6.599zm-15.382.834l-.036.106c-1.405 4.148-3.713 8.176-6.86 11.972l-.075.091h-7.729l.324-.406c4.566-5.728 8.046-11.779 10.344-17.987l.186-.502 3.846 6.726zm-6.945 13.894l.074.082c3.118 3.412 5.356 7.329 6.841 11.975l.034.105-3.83 6.697-.181-.516c-2.355-6.725-5.795-12.757-10.224-17.931l-.353-.413h7.639zm8.424 13.026l.11-.021c4.403-.938 8.936-.936 13.698.007l.111.021 3.843 6.723-.523-.091c-3.566-.619-7.11-.935-10.531-.935-3.356 0-6.723.303-10.01.899l-.528.095 3.83-6.698zm15.401-.846l.037-.106a37.967 37.967 0 0 1 6.854-11.984l.075-.089h7.707l-.328.407c-4.401 5.469-7.87 11.527-10.308 18.01l-.188.498-3.849-6.736zM29.461 10.016c5.073 1.249 10.187 1.882 15.199 1.882 5.015 0 10.128-.633 15.199-1.882l.566-.139-3.844 6.723-.099.028c-3.939 1.096-7.917 1.652-11.822 1.652s-7.883-.556-11.822-1.652l-.099-.028-3.844-6.723.566.139zM11.752 37.898c6.907-8.512 12.086-17.531 15.394-26.806l.182-.512 3.92 6.854-.036.106c-2.381 7.179-6.364 14.135-11.836 20.676l-.076.09h-7.878l.33-.408zm15.595 29.825l-.178-.525c-3.413-10.111-8.548-19.112-15.263-26.751l-.365-.415h7.785l.074.08c5.424 5.868 9.29 12.632 11.819 20.68l.033.104-3.905 6.827zm32.64.799c-5.328-.981-10.604-1.479-15.679-1.479-5.007 0-10.037.484-14.951 1.44l-.535.104 3.904-6.828.109-.022a54.24 54.24 0 0 1 11.575-1.249c3.905 0 7.969.423 12.077 1.257l.111.021.056.1 3.862 6.755-.529-.099zM77.543 40.44c-6.651 8.099-11.817 17.126-15.353 26.833l-.185.506-3.931-6.872.037-.107c2.594-7.55 6.573-14.508 11.828-20.681l.075-.088h7.863l-.334.409z"/></svg>