<svg xmlns="http://www.w3.org/2000/svg" xmlns:xlink="http://www.w3.org/1999/xlink" width="82" height="62.443" viewBox="0 0 82 62.443"><defs><path id="a" d="M0 0h82v62.444H0z"/></defs><clipPath id="b"><use xlink:href="#a" overflow="visible"/></clipPath><path clip-path="url(#b)" d="M33 16.692H12.66a1 1 0 0 1 0-2H33a1 1 0 0 1 0 2M33 21.542H12.66a1 1 0 0 1 0-2H33a1 1 0 0 1 0 2M33 26.392H12.66a1 1 0 0 1 0-2H33a1 1 0 0 1 0 2M33 31.242H12.66a1 1 0 0 1 0-2H33a1 1 0 0 1 0 2M33 36.082H12.66a1 1 0 0 1 0-2H33a1 1 0 1 1 0 2M26 40.932H12.66a1 1 0 0 1 0-2H26a1 1 0 0 1 0 2M69.34 16.692H49a1 1 0 0 1 0-2h20.34a1 1 0 0 1 0 2M69.34 21.542H49a1 1 0 0 1 0-2h20.34a1 1 0 0 1 0 2M69.34 26.392H49a1 1 0 0 1 0-2h20.34a1 1 0 0 1 0 2M69.34 31.242H49a1 1 0 0 1 0-2h20.34a1 1 0 0 1 0 2M69.34 36.082H49a1 1 0 0 1 0-2h20.34a1 1 0 1 1 0 2M62.32 40.932H49a1 1 0 0 1 0-2h13.32a1 1 0 0 1 0 2M41 57.382a1 1 0 0 1-1-1V4.712a1 1 0 0 1 2 0v51.67a1 1 0 0 1-1 1"/><path clip-path="url(#b)" d="M41 57.382a1.008 1.008 0 0 1-.24-2c11.45-2.811 21.95-2.92 35.08-.38V5.392c-12-4.59-22.359-4.52-34.47.25a1 1 0 1 1-.73-1.86c12.49-4.91 23.6-5 36-.21a1.849 1.849 0 0 1 1.2 1.67v50a1.784 1.784 0 0 1-.649 1.38 2.007 2.007 0 0 1-1.631.39c-12.88-2.51-23.14-2.41-34.319.33l-.241.04z"/><path clip-path="url(#b)" d="M41 57.382h-.23a74.23 74.23 0 0 0-34.31-.34 1.998 1.998 0 0 1-1.63-.38 1.781 1.781 0 0 1-.67-1.42v-50a1.85 1.85 0 0 1 1.18-1.72c12.43-4.76 23.54-4.7 36 .21a1 1 0 0 1-.73 1.86C28.5.822 18.18.752 6.14 5.342v49.69a76.073 76.073 0 0 1 35.07.38 1 1 0 0 1-.21 1.97"/><path clip-path="url(#b)" d="M41 60.712H3.5a3.5 3.5 0 0 1-3.5-3.47V8.872a1.83 1.83 0 0 1 1.83-1.83h2.53a1 1 0 0 1 0 2H2v48.2c0 .827.672 1.5 1.5 1.5H41a1 1 0 1 1 0 1.97"/><path clip-path="url(#b)" d="M78.5 60.712H41a1 1 0 0 1 0-2h37.5a1.5 1.5 0 0 0 1.5-1.47v-48.2h-2.37a1 1 0 0 1 0-2h2.53A1.83 1.83 0 0 1 82 8.862v48.381a3.5 3.5 0 0 1-3.5 3.469"/><path clip-path="url(#b)" d="M41 59.712h2.73a2.73 2.73 0 0 1-5.461.002v-.003H41z"/></svg>