<svg xmlns="http://www.w3.org/2000/svg" xmlns:xlink="http://www.w3.org/1999/xlink" width="42" height="64.405" viewBox="0 0 42 64.405"><defs><path id="a" d="M0 0h42v64.405H0z"/></defs><clipPath id="b"><use xlink:href="#a" overflow="visible"/></clipPath><path clip-path="url(#b)" d="M31.28 51.305l-9.279 9.624V25a1 1 0 1 0-2 0v35.929l-9.281-9.624a1 1 0 1 0-1.439 1.389l11 11.407c.058.056.098.068.133.094.048.036.094.073.148.101.126.061.19.063.253.075.06.012.117.034.178.034.076 0 .134-.022.193-.034.063-.012.127-.015.188-.039.117-.063.165-.101.215-.137.033-.025.074-.038.105-.068l11.025-11.433a1 1 0 1 0-1.439-1.389M10 2.006v9.988C10 12 10 12 9.995 12h14.01C24 12 24 12 24 11.994V2.006C24 2 24 2 24.005 2H9.995C10 2 10 2 10 2.006m-2 0A2 2 0 0 1 9.995 0h14.01C25.107 0 26 .896 26 2.006v9.988A2 2 0 0 1 24.005 14H9.995A2 2 0 0 1 8 11.994V2.006z"/><path clip-path="url(#b)" d="M20 1.857V13h2V1h-2z"/><path clip-path="url(#b)" d="M27.2 42h10.604A4.201 4.201 0 0 0 42 37.793V4.206A4.207 4.207 0 0 0 37.794 0H4.206A4.206 4.206 0 0 0 0 4.206v33.588A4.202 4.202 0 0 0 4.196 42H14.8a1 1 0 1 0 0-2H4.196A2.203 2.203 0 0 1 2 37.793V4.206C2 2.987 2.987 2 4.206 2h33.588C39.012 2 40 2.988 40 4.206v33.588A2.2 2.2 0 0 1 37.805 40H27.2a1 1 0 0 0 0 2"/></svg>