<svg xmlns="http://www.w3.org/2000/svg" xmlns:xlink="http://www.w3.org/1999/xlink" width="47.001" height="47" viewBox="0 0 47.001 47"><path fill="none" stroke="#150098" stroke-linecap="round" stroke-linejoin="round" stroke-miterlimit="10" d="M16.855 16.695l6.708-5.673 4.245 1.518"/><defs><path id="a" d="M0 0h47v47H0z"/></defs><clipPath id="b"><use xlink:href="#a" overflow="visible"/></clipPath><path clip-path="url(#b)" fill="none" stroke="#150098" stroke-linecap="round" stroke-linejoin="round" stroke-miterlimit="10" d="M36.256 15.558l10.245 3.66L26.677 38.99 2.8 28.581l4.963-4.196"/><path clip-path="url(#b)" fill="none" stroke="#150098" stroke-linecap="round" stroke-linejoin="round" stroke-miterlimit="10" d="M2.8 28.581c-1.77.567-4.62 5.767 1.07 8.162 6.805 2.864 23 9.758 23 9.758l17.903-17.937M43.633 22.182s-2.224 4.124.111 7.414M26.564 39.557s-2.224 3.6.111 6.474"/><ellipse clip-path="url(#b)" fill="none" stroke="#150098" stroke-linecap="round" stroke-miterlimit="10" cx="10.207" cy="18.56" rx="7.018" ry="5.852"/><ellipse clip-path="url(#b)" fill="none" stroke="#150098" stroke-linecap="round" stroke-miterlimit="10" cx="29.896" cy="18.56" rx="7.018" ry="5.852"/><path clip-path="url(#b)" fill="none" stroke="#150098" stroke-linecap="round" stroke-miterlimit="10" d="M16.687 15.639s3.411-2.673 7.129 0M4.172 15.295l6.499-13.762s1.88-2.325 4.779 0M35.807 15.295l-6.498-13.76s-1.881-2.325-4.78 0"/></svg>