<svg xmlns="http://www.w3.org/2000/svg" xmlns:xlink="http://www.w3.org/1999/xlink" width="29.149" height="28.105" viewBox="0 0 29.149 28.105"><defs><path id="a" d="M0 0h29.149v28.105H0z"/></defs><clipPath id="b"><use xlink:href="#a" overflow="visible"/></clipPath><path clip-path="url(#b)" d="M14.574 28.105l-.503-.296c-.307-.181-7.573-4.506-11.719-11.06C.149 13.27-.536 9.597.422 6.406 1.207 3.795 3.027 1.73 5.548.596A6.562 6.562 0 0 1 8.247 0c2.917 0 5.181 2.028 6.327 3.321C15.721 2.028 17.984 0 20.902 0c.911 0 1.818.2 2.698.597 2.521 1.134 4.342 3.198 5.127 5.81.958 3.189.271 6.862-1.931 10.345-4.146 6.552-11.412 10.877-11.719 11.058l-.503.295zM8.246 1.985c-.629 0-1.262.143-1.885.423-1.988.895-3.423 2.519-4.04 4.571-.79 2.63-.184 5.724 1.707 8.711 3.287 5.194 8.852 9.01 10.546 10.096 1.694-1.088 7.265-4.911 10.547-10.096 1.89-2.987 2.497-6.081 1.706-8.711-.617-2.053-2.052-3.677-4.041-4.571a4.58 4.58 0 0 0-1.884-.423c-3.145 0-5.479 3.448-5.502 3.483l-.826 1.238-.825-1.238c-.023-.033-2.379-3.483-5.503-3.483"/></svg>