<svg xmlns="http://www.w3.org/2000/svg" xmlns:xlink="http://www.w3.org/1999/xlink" width="80.746" height="93" viewBox="0 0 80.746 93"><defs><path id="a" d="M0 0h80.746v93H0z"/></defs><clipPath id="b"><use xlink:href="#a" overflow="visible"/></clipPath><path clip-path="url(#b)" d="M70.373 20h-60c-2.757 0-5-2.243-5-5v-.31L0 11.557l5.373-3.132V5c0-2.757 2.243-5 5-5h60c2.757 0 5 2.243 5 5v10c0 2.757-2.243 5-5 5M3.971 11.558l3.402 1.984V15c0 1.654 1.346 3 3 3h60c1.654 0 3-1.346 3-3V5c0-1.654-1.346-3-3-3h-60c-1.654 0-3 1.346-3 3v4.573l-3.402 1.985z"/><path clip-path="url(#b)" d="M19.373 6h41v2h-41zM70.373 93h-60c-2.757 0-5-2.243-5-5v-.31L0 84.557l5.373-3.132V78c0-2.757 2.243-5 5-5h60c2.757 0 5 2.243 5 5v10c0 2.757-2.243 5-5 5M3.971 84.558l3.402 1.984V88c0 1.654 1.346 3 3 3h60c1.654 0 3-1.346 3-3V78c0-1.654-1.346-3-3-3h-60c-1.654 0-3 1.346-3 3v4.573l-3.402 1.985z"/><path clip-path="url(#b)" d="M19.373 79h41v2h-41zM69.986 44h-60c-2.759 0-4.613-1.876-4.613-4.667v-10C5.373 26.712 7.099 24 9.986 24h60c2.769 0 5.387 2.592 5.387 5.333v3.425l5.373 3.133-5.373 3.132v.31c0 2.883-2.796 4.667-5.387 4.667m-60-18c-1.635 0-2.613 1.694-2.613 3.333v10c0 1.67.977 2.667 2.613 2.667h60c1.629 0 3.387-1.02 3.387-2.667v-1.458l3.402-1.984-3.402-1.985v-4.573c0-1.651-1.709-3.333-3.387-3.333h-60z"/><path clip-path="url(#b)" d="M20.373 30h41v2h-41zM69.986 69h-60c-2.887 0-4.613-2.712-4.613-5.333v-10C5.373 50.876 7.227 49 9.986 49h60c2.591 0 5.387 1.784 5.387 4.667v3.425l5.373 3.133-5.373 3.133v.31c0 2.74-2.618 5.332-5.387 5.332m-60-18c-1.636 0-2.613.997-2.613 2.667v10c0 1.639.978 3.333 2.613 3.333h60c1.678 0 3.387-1.682 3.387-3.333v-1.458l3.402-1.984-3.402-1.984v-4.573c0-1.647-1.758-2.667-3.387-2.667h-60z"/><path clip-path="url(#b)" d="M20.373 55h41v2h-41zM19.373 12h20v2h-20zM19.373 85h34v2h-34zM20.373 36h30v2h-30zM20.373 61h15v2h-15z"/></svg>