<svg xmlns="http://www.w3.org/2000/svg" xmlns:xlink="http://www.w3.org/1999/xlink" width="222.217" height="195.212" viewBox="0 0 222.217 195.212"><defs><path id="a" d="M0 0h222.217v195.212H0z"/></defs><clipPath id="b"><use xlink:href="#a" overflow="visible"/></clipPath><path clip-path="url(#b)" d="M109.941 160.261c6.798-6.638 12.458-13.81 17.636-21.714 3.356-.146 6.854-1.409 9.639-3.069 1.545-.922 2.83-2.175 3.952-3.566.886-1.097 2.861-3.861 2.424-5.439 1.994-1.39 3.318-3.535 3.092-6.305-.411-5.057-9.841-7.349-12.613-3.124-.846 1.292 2.193 1.012 2.758.363 1.321-1.514 4.396.353 5.509 1.391 1.838 1.713 1.047 4.896-.574 6.446-4.144 3.965-9.769-2.95-13.32-4.409-3.257-1.341-6.525-1.68-9.226-4.166-2.344-2.157-3.122-4.989-2.645-8.062.413-2.652 1.619-5.189 2.559-7.684.809-2.139 1.986-5.265.94-7.485-.192-.409-1.098-.211-1.261.149-.715 1.583-1.003 3.345-1.565 4.994-.688 2.02-1.584 3.974-2.395 5.944-1.363 3.306-2.312 6.773-.914 10.22 1.66 4.086 5.766 5.881 9.684 7.047 2.049.608 3.692 1.398 5.314 2.505-5.774 1.193-11.976.177-17.816.443-6.852.312-14.411 1.824-21.083-.275-.714-.226-3.764 1.015-3.159 1.324 5.322 2.723 10.165 5.513 16.21 6.31 4.882.643 9.709.235 14.541-.349-7.468 3.029-15.453 4.571-23.55 4.627a7.332 7.332 0 0 0-3.139.704c-.158.074-1.645.907-.928 1.243 4.578 2.146 9.399 2.314 14.318 2.543-4.165 2.385-10.155 2.327-14.642 2.257-5.471-.087-11.772-.636-16.629-3.393-.781-.442-5.517.585-4.9 1.545 6.475 10.078 20.448 9.69 31.563 7.586-5.396 2.939-12.389 3.347-18.244 4.257-5.997.934-13.294 1.834-17.616 6.588-.748.822.653.907 1.189.857 2.723-.245 5.428-.614 8.157-.787 2.45-.158 5.573-.348 7.739 1.063-2.052 1.842-5.071 2.229-7.599 3.179-2.678 1.004-5.077 2.508-6.491 5.057-.448.813 1.769.54 1.974.514 2.627-.35 5.142-1.372 7.737-1.823-.315.486-.655.942-1.069 1.404-.318.356-.281.651.212.786 6.679 1.826 14.015-.2 20.195-2.842a76.062 76.062 0 0 0 4.723-2.204 110.87 110.87 0 0 1-5.37 4.208c-11.772 8.61-25.311 13.889-39.15 18.034-.106.016-.212.029-.317.043-2.055.283-4.353.648-6.028 1.912-7.244 2.541-20.116 7.504-21.711-1.783-.938-5.457 3.219-10.592 2.462-16.151-.344-2.512-2.141-4.413-4.079-5.864-.939-.703-2.248-1.309-2.696-2.468-.748-1.94 2.131-3.717 3.433-4.52.263-.191.552-.33.859-.428 4.217.435 8.407.345 12.172-1.592 1.994-1.026.201-2.808-1.459-1.949-5.738 2.965-13.375.56-19.665.005 1.268-4.675 1.626-10.322.386-14.942.374-.126.746-.251 1.118-.371 1.958-.62 5.988-2.224 7.681-.588 2.001 1.934 4.911 2.523 6.933-.023 2.282-2.871-.498-5.475-3.592-5.611-1.434-.063-3.267 1.928-1.093 2.232a3.135 3.135 0 0 1 1.447.542c.951.539.774 2.836-.361 1.774-.598-.559-1.175-1.295-1.982-1.566-2.338-.788-4.738-.104-7.06.388-6.358 1.345-12.471 5.507-18.944 3.129 2.474-3.509 5.986-6.12 9.337-8.745 3.586-2.809 6.594-5.775 9.566-9.208 5.617-6.484 13.844-12 14.999-21.165.529-4.222-.732-8.372 1.169-12.393 1.128-2.387 3.517-4.31 5.125-6.398 1.336-1.736 2.512-3.6 3.613-5.491 2.137-3.672 3.528-7.772 5.777-11.363 1.218-1.945 5.345-7.837 8.069-5.974.622.426 1.882.034 2.225-.578a3.704 3.704 0 0 0 1.179-.448c.453-.274.512-.78-.075-.912-4.885-1.101-9.798-3.542-14.113-6.029-3.844-2.214-5.965-7.613-5.777-12.472 1.175 5.711 4.503 11.878 9.781 11.91 1.626 1.699 3.735 3.014 6.14 3.801.139.046.838-.173.597-.371-4.79-3.932-8.207-8.282-7.262-14.784.425-2.922 1.766-5.628 3.402-8.048 1.759-2.604 4.327-4.365 6.227-6.799.371-.475-.718-.375-.889-.305-5.934 2.447-10.39 9.347-11.506 15.486-.471 2.598-.159 5.042.754 7.19-1.344-1.185-2.443-2.623-3.351-4.53-1.5-3.142-2.266-6.822-1.416-10.241.182-.727-.804-.938-1.285-.951-3.278-.087-4.189 5.829-4.285 8.187-.171 4.303 1.608 8.789 4.453 11.975 2.315 2.593 6.095 3.904 9.21 5.235.633.27 1.394.619 2.217.959-3.637 1.96-7.098 6.816-8.264 9.24-2.279 4.735-4.559 9.481-7.667 13.741-3.111 4.264-6.93 7.177-7.37 12.775-.167 2.117.085 4.263.052 6.384-.044 2.787-.899 5.269-2.269 7.672-2.65 4.655-7.025 8.266-10.691 12.088-1.719 1.792-3.17 3.805-4.898 5.585-1.89 1.945-4.085 3.598-6.21 5.271-3.767 2.967-7.5 5.998-10.061 10.116-.336.542.139.992.584 1.202 4.28 2.016 8.646 1.612 13.085.352a67.182 67.182 0 0 0 3.58-1.154c-.559 5.096.377 9.995-1.361 15.028-.225.652.207 1.162.882 1.222 2.403.207 4.925.647 7.478 1.035-2.651 1.612-4.706 4.636-3.108 7.341 1.347 2.282 4.268 2.956 5.483 5.519 1.285 2.712.198 6.056-.603 8.734-1.288 4.318-3.053 10.084.717 13.724 3.077 2.973 7.925 2.719 11.831 2.049 4.688-.803 9.133-2.447 13.652-3.88 2.356-.748 4.711-1.444 7.06-2.148 2.17-.187 4.332-.288 6.416-.373a49.587 49.587 0 0 1 10.703.727c3.679.653 7.075 2.198 10.705 3.019.657.147 1.611-.611.966-1.216-2.632-2.47-6.265-3.314-9.722-4.053-3.385-.722-6.883-.93-10.348-.879a90.443 90.443 0 0 0 4.698-1.777c13.828-5.706 26.406-13.473 37.128-23.943m-14.094 4.887c-4.72 2.35-10.175 4.245-15.455 3.068a14.335 14.335 0 0 0 1.453-2.089c.365-.652-1.131-.594-1.353-.584-2.803.106-5.406 1.005-8.077 1.651 1.666-1.991 4.164-2.497 6.678-3.316 2.491-.813 4.998-1.837 6.8-3.814.188-.206.367-.457.086-.678-2.319-1.83-5.83-1.797-8.629-1.737-2.595.058-5.163.348-7.737.615 2.168-1.646 4.87-2.212 7.587-2.694 3.304-.584 6.632-1.071 9.948-1.595 6.95-1.097 14.298-2.651 19.853-7.241 1.299-1.071-2.249-.711-2.526-.642-8.092 1.994-19.205 3.307-26.618-1.504 3.771.604 7.667.704 11.247.646 7.072-.111 15.278-1.051 21.057-5.513.702-.542-.214-.861-.665-.887-3.387-.193-6.797-.188-10.086-.831 8.925-.992 17.675-3.459 25.69-7.563 2.019-1.033.441-1.52-1.007-1.331-5.66.736-11.25 1.647-16.972 1.1a30.906 30.906 0 0 1-9.437-2.443c-.744-.33-1.48-.682-2.217-1.036 4.648.144 9.283-.172 14.023-.428 6.749-.365 13.794.795 20.319-1.378.257.191.513.391.773.601 1.309 1.06 2.59 1.848 4.203 2.338 1.882.572 4.021.527 5.964-.048-.413.793-.71 1.646-1.145 2.505-.724 1.436-1.739 2.691-2.897 3.794-2.419 2.306-5.396 2.952-8.511 3.447.319-.736-.933-.912-1.367-.371-.198.248-.4.496-.602.743-.474.186-1.076.51-.472.584-4.77 5.876-9.751 11.688-15.096 17.118-.128.052-.226.1-.281.141-4.542 3.519-9.383 6.812-14.531 9.372"/><path clip-path="url(#b)" d="M73.566 84.802c-3.287.249-6.427 1.185-9.699 1.531-2.689.283-5.083-1.079-7.711-.985-4.312.154-8.569 4.249-11.871 6.692-1.06.782.092 1.29.943 1.083 3.991-.966 7.523-6.389 11.676-5.292 5.793 1.531 11.513.095 16.848-2.333.566-.257.418-.741-.186-.696M51.187 114.101c2.568.67 5.611-.431 8.01-1.333 3.112-1.171 5.942-3.127 8.412-5.322.09-.079.148-.153.193-.222.01.036.028.067.038.104.078.313.413.499.7.565.859.196 1.435.084 2.165-.414.334-.229.765-.63.639-1.091-.871-3.147-4.931-4.321-7.688-5.145-1.988-.594-4.045-.876-6.032-1.455-2.676-.778-4.712-2.777-7.226-3.868-.468-.203-2.164.107-1.643.89.638.959 1.427 1.741 2.3 2.407.069 1.094 1.198 2.14 2.48 2.996-.085.345-.173.69-.27 1.036a9.838 9.838 0 0 0-.731 2.569c-.677 2.435-1.16 4.879-.362 7.261-.067.015-.135.027-.203.042-.209.049-1.577.772-.782.98m3.865-2.448c-.03.035-.063.063-.093.097-.005-.018-.007-.037-.011-.056l.104-.041m3.81-.22c-.682.314-1.374.54-2.07.726 1.816-1.632 2.786-4.125 3.202-6.69.807.348 1.615.692 2.411 1.061.76.351 1.462.87 2.219 1.191-1.772 1.468-3.658 2.743-5.762 3.712m8.72-4.776a1.422 1.422 0 0 0-.521-.091c-.075 0-.019-.107-.512-.378a30.578 30.578 0 0 0-1.846-.926c-1.479-.688-2.989-1.303-4.485-1.953.01-.18.013-.355.017-.531 2.608.613 6.21 1.595 7.347 3.879M69.947 53.539c3.788 2.096 12.534 3.35 15.083-1.206.316-.571-.654-.749-.992-.542-3.971 2.415-10.047 1.647-13.634-1.148-4.119-3.212-2.819-8.542-3.568-12.976-.118-.693-1.18-.287-1.402.092-3.147 5.401-.838 12.822 4.513 15.78M69.768 31.365c.521-4.678 1.209-9.198 3.947-13.155 2.517-3.638 6.42-5.944 10.464-7.526 4.09-1.598 8.477-2.389 12.805-3.018 5.551-.808 10.717-1.8 16.067-3.556 2.947-.965 5.893-1.881 8.967-2.342 3.878-.579 7.506.393 11.154 1.605 6.6 2.194 12.925 5.119 19.526 7.32 4.735 1.58 8.989 4.258 12.16 8.133 2.906 3.548 4.208 8.146 5.515 12.492-.228.082-.411.214-.4.401.016.311.096.585.217.839-1.667.303-3.31.726-4.824 1.129-1.569.418-8.367 2.774-5.12 5.225.327.248 1.317-.054 1.25-.538-.434-3.079 5.266-3.622 7.383-4.003a36.172 36.172 0 0 1 2.812-.412c1.65.842 4.07 1.075 5.361 1.342 3.212.665 6.124 1.517 9.102 2.585.286.165.585.308.863.48 1.411.882 2.792 2.051 3.585 3.539.263.49.377.963.42 1.434-1.567-.608-3.206-.985-4.844-.958-2.563.041-6.504 1.6-6.526 4.686-.005 1.065 1.599.742 2.067.223 1.702-1.884 2.521-2.993 5.262-2.56 1.297.204 2.554.702 3.746 1.341l-.05.314c-.085.582.637.532 1.197.353a30.98 30.98 0 0 1 2.313 1.614c2.25 1.714 9.074 8.227 5.2 11.26-.686.534-.76 1.37.123 1.724 5.253 2.109 8.821 6.067 10.132 11.593 1.117 4.709.427 11.249-4.188 13.727-.228.12-.487.539-.073.634 5.889 1.36 7.961-8.118 7.785-12.108-.311-7.03-4.423-12.452-10.556-15.359 3.506-4.614-3.16-11.161-6.768-13.798a24.24 24.24 0 0 0-2.146-1.402c1.023-2.804-1.567-5.692-4.025-7.391-3.847-2.654-8.872-4.255-13.468-4.942-.949-.141-1.938-.162-2.938-.11-.219-.092-.438-.182-.66-.277.906-11.084-7.076-19.246-17.002-22.767-7.134-2.531-14.108-5.62-21.326-7.907-6.708-2.126-13.012-1.256-19.625.797-3.409 1.059-6.762 2.315-10.264 3.051-2.641.556-5.379.718-8.048 1.123-4.975.751-9.93 1.881-14.596 3.789-8.947 3.662-16.088 11.639-14.366 21.879.11.653 2.323.089 2.39-.503"/><path clip-path="url(#b)" d="M90.602 56.307c3.49 7.053 13.923 5.375 18.765 1.031 1.575-1.411 2.833-3.572 3.254-5.799.016 1.225 1.665 1.575 2.873 1.167 1.85-.627 3.161-2.236 4.165-3.839.962-1.538 1.822-3.559 1.438-5.405-.396-1.901-2.155-2.423-3.855-2.021-.258.061-.55.415-.177.553 2.641.956 1.466 3.743.483 5.61-.558 1.064-1.307 2.14-2.235 2.914-.17.142-.503.258-.468.309-.266-.063-.57-.251-.837-.386-.366-.186-1.039-.102-1.22.326-.035.08-.057.153-.08.228.173-1.378.013-2.76-.618-3.987-1.686-3.286-5.954-3.71-9.178-3.454-.149.01-1.376.45-.928.535 2.404.451 4.883 1.327 6.348 3.394 1.839 2.602.592 5.992-.83 8.445-1.902 3.28-5.417 4.493-8.923 3.204-2.761-1.013-5.055-3.652-5.177-6.627-.091-2.167 1.381-4.183 1.981-6.196.656-2.206-.369-3.992-2.005-5.416-2.513-2.188-4.937-3.632-3.587-7.448.519-1.475 1.684-2.77 2.829-3.783.164-.146.33-.267.494-.399-.191.843.114 1.632 1.257 2.24.318.169 1.791-.06 1.758-.549-.085-1.261-.522-2.056.097-3.305.015-.029.035-.056.051-.086 1.006-.285 2.065-.354 3.194-.198a13.434 13.434 0 0 0 3.344 1.916c3.65 1.409 10.683 1.936 12.34-2.749.31-.869-1.554-.31-1.804-.102-3.189 2.644-6.612 2.358-10.164.444-1.213-.651-2.293-1.55-3.079-2.627 3.973-2.208 8.662-1.446 13.081-1.433.38.002 2.184-.742 1.239-.766-5.142-.126-10.107-.866-14.846 1.362-.666-1.221-.965-2.618-.703-4.112.862-4.902 7.445-6.091 11.304-3.736.323 1.148 1.131 2.127 2.514 2.691.521.212 3.059-.042 2.522-1.109a7.72 7.72 0 0 0-2.301-2.756c-.114-.891.128-1.892.611-2.879 1.403-2.863 4.555-3.613 7.491-3.491 3.414.14 5.924 1.917 8.007 4.5 1.814 2.25 2.588 5.017 4.113 7.396.247.384 1.328.079 1.362-.364.302-3.836-2.367-7.878-5.043-10.381-2.877-2.689-6.938-3.235-10.714-2.787-3.245.385-6.221 2.133-7.868 4.974a6.614 6.614 0 0 0-.687 1.679c-5.212-1.587-12.19.957-14.007 6.138-.726 2.07-.213 4.032.913 5.699-.97.679-2.063 1.555-2.869 2.475-.61.257-1.219.544-1.825.893-3.4 1.952-7.032 5.758-5.804 9.962 1.071 3.662 6.661 3.974 5.458 8.74-.86 3.42-3.256 5.723-1.454 9.365m7.216-30.503c.179.202.365.401.558.593-.449.012-.894.058-1.336.127.24-.253.503-.496.778-.72M153.166 110.34c.895-.757 1.776-1.496 2.727-2.185 1.24-.902 2.537-1.615 4.015-2.029 1.608-.45 3.139.576 4.649.957.421.107 1.334-.097 1.218-.705-.38-2.005-2.75-2.622-4.585-2.455-2.691.244-4.983 1.469-7.135 3.046-1.717 1.256-8.166 6.366-2.872 6.916.212.021.839-.285.467-.517-1.611-.993.657-2.305 1.516-3.028M168.584 102.819c-.787.368-.294.742.363.583 10.563-2.563 19.58-12.522 21.669-23.07.855-4.331.075-9.169-1.988-13.227 3.244-1.277 3.774-5.423 2.141-8.6-2.062-4.001-6.844-6.417-11.196-5.111-1.077.323-.767 1.414.318 1.189 3.292-.682 6.38 2.182 7.907 4.789 1.361 2.331.935 4.096-.299 5.788-2.971-4.507-7.699-7.591-13.604-7.033-9.81.924-15.14 10.137-14.148 19.378.41 3.833 3.069 7.028 7.125 7.044 3.91.017 7.262-2.747 9.346-5.851 1.845-2.75 1.336-5.642-2.386-5.275-.157.016-.735.367-.313.405 3.877.356-.469 5.934-1.655 7.111-1.528 1.518-3.099 2.485-5.251 1.737-1.65-.576-2.685-2.04-3.295-3.598-2.754-7.027 1.571-18.183 9.47-19.352 5.449-.805 10.045 3.51 12.554 7.829 2.443 4.206 2.988 9.159 2.082 13.88-1.924 9.998-10.013 17.265-18.84 21.384"/><path clip-path="url(#b)" d="M160.729 87.011c-3.274-.633-7.729 1.621-7.277 5.382.07.582 1.029.316 1.26.038 1.068-1.28 1.929-2.563 3.621-3.033 1.65-.458 3.45.642 4.544 1.766 3.208 3.297 1.392 7.833-2.169 9.797-4.405 2.428-10.061.546-12.538-3.577-3.543-5.895-1.337-17.268 6.623-17.712.39-.022.963-.631.364-.832-5.234-1.765-9.385 3.571-10.761 7.931a16.047 16.047 0 0 0-.507 2.082c-.558-1.828-1.691-3.719-3.155-4.731-1.202-.829-4.104-1.14-4.89.563-.276.603-.31.64-.322 1.338-.018.903 1.586.458 1.953.077.228-.153.389-.277.494-.375.406.332.764.844 1.057 1.215.831 1.054 1.297 2.254 1.646 3.535.833 3.053-.174 6.328-1.614 9.014-1.351 2.521-3.631 4.998-6.426 5.873-3.432 1.072-5.548-3.488-5.935-6.085-.407-2.719.454-5.616.72-8.315.233-2.39.251-4.774.219-7.174-.06-4.413.139-8.448 2.84-12.136 2.582-3.522 7.144-5.205 8.637-9.534 1.263-3.661-1.404-7.274-5.07-7.427-2.949-.122-5.687 1.578-8.331 2.645-2.873 1.157-6.889 2.167-6.331-2.412.106-.875-1.852-.443-2.021.235-.968 3.885 1.02 5.425 4.813 4.912 3.731-.506 6.869-3.016 10.527-3.508 3.781-.508 3.79 5.229 2.532 7.345-1.497 2.519-4.644 4.139-6.652 6.234-3.801 3.967-4.332 8.79-4.283 14.034.029 2.915-.049 5.795-.421 8.689-.418 3.246-1.097 6.395-.039 9.592 1.938 5.854 8.162 5.823 12.651 3.27 3.849-2.188 6.609-6.304 7.512-10.68.617 2.831 2.056 5.434 4.451 7.197 6.188 4.557 17.123 1.841 19.19-5.835 1.206-4.483-2.828-8.609-6.912-9.398M196.185 104.502c4.819.479 15.852-4.661 10.581-10.61-1.883-2.122-5.661-2.188-8.248-1.849-1.586.207-6.284 1.403-4.099 3.721.36.38 2.081-.123 2.236-.6.674-2.089 1.369-1.868 3.522-1.531 2.07.324 3.818 1.704 4.177 3.832.399 2.382-2.182 4.563-4.106 5.328-1.715.681-3.58-.411-4.794-1.538-2.237-2.075-2.907-5.619-2.946-8.527-.024-1.97.742-7.549 3.522-7.722.442-.028 2.554-1.043 1.334-1.025-5.211.072-7.885 3.915-8.383 8.777-.492 4.823 1.65 11.192 7.204 11.744"/><path clip-path="url(#b)" d="M216.233 115.478c5.431-3.623 7.115-10.026 5.255-16.429-.947-3.267-2.522-6.58-5.144-8.823-2.578-2.204-6.091-2.738-9.365-2.782-1.201-.016-3.305 1.783-1.196 1.817 6.446.101 9.916 3.455 12.086 9.314 2.129 5.739 1.694 13.339-4.399 16.455-.461.235-1.498.985-.617 1.446 7.351 3.849.22 14.327-3.496 18.251-2.315 2.444-8.418 5.458-12.225 4.313-.027-1-.253-2.038-.726-3.104-1.736-3.914-6.708-5.753-10.695-5.139-3.53.543-7.021 3.358-6.343 7.188.093.528 1.29.022 1.429-.285 1.525-3.458 3.515-6.482 7.766-5.157 1.879.587 3.521 1.837 4.529 3.453-.283.111-.514.293-.535.499-.194 1.865.425 3.03 1.534 3.692-.419 4.353-3.869 7.203-7.817 8.15-1.284-3.228-3.527-6.445-6.726-5.175-.33.13-.29.473.038.544 2.103.453 3.272 2.662 3.976 4.979-1.762.028-3.509-.318-5.026-1.091-2.897-1.475-5.059-4.715-5.711-8.125a13.992 13.992 0 0 0 2.731-1.967c.196-.185.394-.368.592-.551.599-.56-.535-.864-.95-.638-.791.438-1.654.854-2.563 1.236-.035-2.069.521-4.094 1.874-5.715.9-1.081 3.369-3.012 5.677-3.998 1.392.854 3.016 1.347 4.694 1.504.037.257.063.533.058.845 0 .232.808.086.81-.217.002-.185.013-.38.023-.577 2.577.06 5.198-.641 7.225-2.037 1.439-.991 2.013-2.373 2.013-3.818 1.142.385 2.389.592 3.687.575 5.2-.066 13.971-8.744 7.001-12.534-.256-.14-1.59.024-1.479.472.526 2.079 1.125 3.672.498 5.841-.873 3.01-3.655 5.29-6.8 4.606a7.696 7.696 0 0 1-3.644-1.937 8.987 8.987 0 0 0-.972-1.557 6.755 6.755 0 0 0-.76-.813c-1.047-2.216-1.032-4.883.557-7.112.51-.713-1.826-.328-2.184.133-1.34 1.725-1.905 3.464-1.884 5.083-2.459-.706-5.264-.647-7.614-.51-.215.013-1.373.48-.698.542 3.07.277 6.332.848 8.843 2.75.068.052.133.109.2.166a7.887 7.887 0 0 0 1.713 2.237c.871 1.85.892 4.067-.596 5.603-1.255 1.294-3.236 1.354-5.092.886-.066-.651-.297-1.239-.949-1.625-.879-.518-2.001-.505-3.002-.322-1.383-1.179-2.257-2.817-2.761-4.551-2.225-7.666 3.962-20.634 13.276-16.815.172.071.921-.229.769-.323-4.535-2.756-9.808-.208-12.985 3.435-3.744 4.29-5.764 11.195-3.188 16.533a8.306 8.306 0 0 0 2.002 2.631c-2.301.988-4.439 2.517-6.225 4.174-2.017 1.876-2.867 4.664-2.858 7.429-5.915 1.744-12.797 1.507-15.718-4.614-2.484-5.207-2.021-13.583 1.307-18.249 2.362-3.31 6.012-4.712 9.934-3.665 2.807.748 3.893 3.433 3.621 6.095-.254 2.504-1.852 4.854-4.079 5.992a4.11 4.11 0 0 1-.843-2.477c.588-.204 1.293-.767 1.111-1.43a4.726 4.726 0 0 0-.468-1.102c.085-.169.176-.337.279-.507.422-.698-.554-.811-1.332-.589-2.251-1.297-5.896 1.182-6.75 3.81-1.488 4.577 3.737 5.504 7.108 4.933.54.379 1.159.708 1.869.97 3.016 1.108 9.49 1.729 11.339-1.785.245-.466-.485-.55-.775-.451-3.063 1.061-5.881 1.721-9.027.451-.167-.067-.324-.142-.479-.215 6.596-3.675 7.694-14.814-1.448-16.202-5.256-.796-10.391 1.647-13.25 6.125-2.887 4.515-2.961 10.041-2.252 15.212.678 4.967 3.659 8.554 8.435 10.049 3.582 1.122 7.854 1.062 11.599-.199.105.608.236 1.207.422 1.777 1.39 4.285 5.402 7.098 9.675 7.928 1.182.229 2.508.238 3.88.059.191.878.337 1.711.452 2.403.935 5.564-.976 10.776-6.105 13.527-4.15 2.224-9.711 1.185-12.951-2.144a7.07 7.07 0 0 1-1.243-1.717c.243.03.482.055.713.068 4.153.274 9.425-1.403 11.112-5.53 1.854-4.532-2.431-9.99-5.73-12.635-2.468-1.978-8.236-3.203-9.588.823-.073.218.798-.021.898-.127 1.557-1.6 2.711-2.083 4.711-.952 1.596.904 2.89 2.301 3.99 3.739 1.929 2.518 3.791 5.966 2.982 9.223-1.045 4.218-6.031 5.167-9.66 3.62-.403-2.813 1.385-5.671 3.442-8.009.646-.733-.713-.817-1.14-.557-2.183 1.341-3.845 3.226-4.669 5.311-1.297-3.046-3.521-5.536-6.72-6.694-4.655-1.688-13.558.216-14.437 5.889-.442 2.846 1.488 5.589 3.69 7.17 2.648 1.903 5.984 2.024 9.03 1.185.641-.177 1.011-.71.077-.543-4.258.77-8.675-2.38-9.764-6.474-1.276-4.783 4.042-7.18 8.019-6.359 3.409.702 5.567 3.297 6.813 6.395.007.714.234 1.338.628 1.872.559 2.025.791 4.143.757 6.017-.099 5.544-3.028 13.343-9.78 12.336-12.499-1.867-18.791-15.98-14.597-27.081 2.136-5.651 7.42-8.433 10.63-13.222.219-.321-1.52.032-1.756.229-4.973 4.15-10.215 8.68-12.417 14.953-1.218 3.467-1.369 7.17-.605 10.692-.345.111-.649.265-.704.395-1.682 4.109-3.239 8.943-3.246 13.418-.005 3.481 1.696 6.938 3.86 9.584 1.639 2.002 4.121 2.39 6.357 1.079.152-.089.292-.19.423-.297 3.233 6.189 11.998 8.191 18.671 4.482.701-.39-.713-.274-.911-.21-8.07 2.717-16.576-2.068-16.187-11.061-.004-.482-2.788-.035-2.826.757-.01.713-.417 5.895-1.021 5.607-2.033-.965-3.308-3.713-4.168-5.66-1.303-2.945-1.418-5.927-.932-9.066.32-2.065 1.1-4.126 1.514-6.205a21.31 21.31 0 0 0 1.535 3.28c4.066 7.023 13.466 11.989 21.396 8.751 5.04-2.056 7.757-7.656 8.01-13.362.16.193.315.387.498.576 4.099 4.234 10.796 4.577 15.986 2.491 6.541-2.631 9.495-9.275 8.397-15.945a20.07 20.07 0 0 0-.649-2.63c4.66-1.405 9.176-4.72 10.137-8.946 4.568.163 11.296-2.605 13.289-4.139 5.11-3.928 13.317-16.224 6-21.278m-54.477 5.101c-.025.03-.056.055-.079.089-.249.339-.197.616-.001.8-.17 1.127-.003 2.204.483 3.163a3.668 3.668 0 0 1-1.524-.513c-1.641-1.028.158-4.699 1.121-3.539M130.667 26.922c-.843.908-1.718 2.26-2.182 3.631-2.985-.776-6.6-.473-8.556.603-6.56 3.613.877 11.442 5.43 12.539.482.116 2.581-.722 1.655-1.1-3.411-1.386-7.676-5.262-6.497-9.316.706-2.426 5.01-2.143 7.64-.64.083 1.201.734 2.231 2.343 2.734.538.169 2.954-.074 2.678-1.068-.308-1.11-1.054-1.977-2.049-2.628-.039-3.285 4.589-8.365 7.885-6.829 2.448 1.141 3.304 4.026 3.455 6.72-4.37.881-9.686 4.071-10.633 8.504-.271 1.283 2.052.599 2.444.009 2.076-3.132 4.494-5.581 8.181-6.426a21.795 21.795 0 0 1-1.315 6.083 9.52 9.52 0 0 1-1.174 2.195c-.814 1.135-1.659.936-2.935.838-.223-.016-1.414.174-1.09.609 1.121 1.493 3.671.648 5.012-.052 2.151-1.124 3.204-3.76 3.857-5.94.351-1.172.63-2.53.765-3.934 3.062.434 5.558 2.724 6.175 5.948 1.379 7.189-9.392 12.553-13.841 6.422-.523-.719-2.45-.016-1.925.901 3.625 6.326 12.462 4.202 16.638-.893.345-.053.712-.168.829-.293 4.731-5.107 11.852 1.347 10.369 7.075-.873 3.369-5.081 5.747-8.38 5.641-2.019-.065-3.313-1.337-3.903-3.173-.755-2.349 1.205-4.137 2.963-5.23.731-.456-.546-.495-.815-.419-2.479.712-4.695 2.311-5.109 5.001-.383 2.51 1.71 4.549 4.009 4.97 4.635.85 10.396-1.509 13.096-5.367 2.617-3.738.317-8.439-3.269-10.496-2.715-1.557-6.015-1.268-8.514.373.76-1.482 1.129-3.118.934-4.817-.559-4.88-4.708-7.531-9.176-7.772-.076-3.121-1.056-6.159-3.817-7.703-3.846-2.151-8.514.438-11.178 3.3M88.172 20.533c.565.053 2.081-.971 1.005-1.093-3.238-.365-6.269.8-8.925 2.593-2.311 1.559-5.245 4.465-5.157 7.509.082 2.908 2.306 5.572 5.113 6.34 2.133.583 5.985.308 6.63-2.325.13-.533-1.002-.229-1.181-.116-2.165 1.386-3.756 1.358-5.753-.291a5.633 5.633 0 0 1-2.027-4.718c.299-4.413 6.259-8.274 10.295-7.899"/><path clip-path="url(#b)" d="M150.871 14.251c-4.156-2.204-9.114-1.781-13.105.469-.987.557.317 1.139.974.806 3.436-1.736 7.601-1.138 10.804.807 3.664 2.224 4.414 6.29 3.055 10.109-.384 1.08 1.777.784 2.177.608 2.61-1.149 6.746.466 6.213 3.766-.448 2.798-4.105 3.559-5.119 5.914-.394.917 1.045.901 1.548.644 3.039-1.549 7.902-5.553 6.221-9.402-1.221-2.792-4.649-3.521-7.59-3.125 1.027-4.417-1.035-8.399-5.178-10.596"/></svg>