<svg xmlns="http://www.w3.org/2000/svg" xmlns:xlink="http://www.w3.org/1999/xlink" width="67.146" height="86.907" viewBox="0 0 67.146 86.907"><path d="M10.532 20.264h35.604v2.374H10.532zM10.532 26.912h35.604v2.372H10.532zM10.532 33.556h35.604v2.375H10.532zM10.532 40.202h35.604v2.373H10.532zM10.532 46.849h35.604v2.376H10.532zM10.532 53.494h35.604v2.377H10.532zM10.532 60.143h28.011v2.373H10.532zM14.33 13.618h31.81v2.374H14.33z"/><defs><path id="a" d="M0 0h67.146v86.907H0z"/></defs><clipPath id="b"><use xlink:href="#a" overflow="visible"/></clipPath><path clip-path="url(#b)" d="M61.789 10.715V5.358h-5.597V0H0v76.193h5.596v5.356h5.357v5.357h56.193V10.715h-5.357zM2.857 73.336V2.857h50.477v70.478H5.596l-2.739.001zm5.596 5.357v-2.5h47.739V8.215h2.737v70.478H8.453zm55.835 5.358H13.81v-2.5h47.979V13.572h2.499v70.479"/></svg>