<svg xmlns="http://www.w3.org/2000/svg" xmlns:xlink="http://www.w3.org/1999/xlink" width="48" height="64" viewBox="0 0 48 64" fill="#150098"><defs><path id="a" d="M0 0h48v64H0z"/></defs><clipPath id="b"><use xlink:href="#a" overflow="visible"/></clipPath><path clip-path="url(#b)" d="M14.628 27.102a9.148 9.148 0 0 0 9.148-9.148h-9.148V8.807a9.148 9.148 0 0 0 0 18.295m-1-17.234v9.087h9.087c-.494 4.023-3.932 7.148-8.087 7.148-4.493 0-8.148-3.655-8.148-8.148.001-4.155 3.126-7.593 7.148-8.087"/><path clip-path="url(#b)" d="M15.605 7.83v9.148h9.148a9.148 9.148 0 0 0-9.148-9.148m1 1.061a8.165 8.165 0 0 1 7.087 7.087h-7.087V8.891zM28.196 22.312h1v3.217h-1zM31.019 14.84h1v10.689h-1zM33.842 9.409h1V25.53h-1zM36.665 14.5h1v11.03h-1zM39.488 19.691h1v5.838h-1zM16.279 34.304l-.775-.673-.653.793-3.84 4.666-1.125-1.094-.736-.716-.696.755-1.255 1.362-.66.716.698.679 3.306 3.215.779.758.69-.839 5.777-7.02.619-.752-.735-.64-1.394-1.21zM11.24 43.29l-3.306-3.215 1.255-1.362 1.904 1.853 4.53-5.506 1.394 1.212-5.777 7.018zM20.574 36.913h20.887v1H20.574zM20.574 40.421h20.887v1H20.574zM16.279 47.014l-.775-.673-.653.793-3.84 4.666-1.125-1.094-.736-.716-.696.755-1.255 1.362-.66.716.698.679 3.306 3.215.779.758.69-.839 5.777-7.02.619-.752-.735-.64-1.394-1.21zM11.24 56l-3.306-3.215 1.255-1.362 1.904 1.853 4.53-5.506 1.394 1.212L11.24 56zM20.574 49.623h20.887v1H20.574zM20.574 53.131h20.887v1H20.574z"/><path clip-path="url(#b)" d="M48 0H0v64h48V0zm-1 63H1V1h46v62z"/></svg>