<svg xmlns="http://www.w3.org/2000/svg" xmlns:xlink="http://www.w3.org/1999/xlink" width="365.783" height="361.467" viewBox="0 0 365.783 361.467"><defs><path id="a" d="M0 0h365.783v361.467H0z"/></defs><clipPath id="b"><use xlink:href="#a" overflow="visible"/></clipPath><path clip-path="url(#b)" d="M152.186 0C68.271 0 0 68.271 0 152.188c0 83.917 68.271 152.188 152.186 152.188 27.75 0 54.936-7.582 78.615-21.926l3.353-2.031 73.313 73.316c4.988 4.985 11.621 7.731 18.674 7.731 7.059 0 13.691-2.746 18.677-7.731 4.989-4.989 7.734-11.62 7.731-18.673 0-7.055-2.749-13.687-7.74-18.678h-.001l-71.76-71.775 2.496-3.452c18.86-26.082 28.83-56.847 28.83-88.968 0-8.016-.646-16.072-1.921-24.038l-7.718 5.798a144.512 144.512 0 0 1 1.165 18.239c0 79.245-64.47 143.715-143.715 143.715-79.243 0-143.713-64.471-143.713-143.715 0-79.245 64.47-143.715 143.713-143.715 44.57 0 86.813 20.976 113.993 56.353l6.877-4.941C244.27 22.295 199.458 0 152.186 0m93.553 272.092c5.282-4.133 13.111-11.55 16.876-15.114.644-.61 1.162-1.103 1.522-1.439 3.747-3.503 6.788-1.059 7.361-.534l3.434 3.154-.143.18 64.028 64.037a17.842 17.842 0 0 1 5.257 12.689c.008 4.78-1.855 9.284-5.245 12.676l-.001.001h-.001c-3.434 3.436-8.057 5.153-12.681 5.153-4.622 0-9.246-1.715-12.688-5.147l-72.17-72.177 4.451-3.479z"/><path clip-path="url(#b)" d="M186.989 108.57l36.067 41.158L365.782 35.612l-5.29-6.617-136.401 109.057-36.056-41.14-119.597 95.107 5.273 6.631z"/></svg>