<svg xmlns="http://www.w3.org/2000/svg" xmlns:xlink="http://www.w3.org/1999/xlink" width="57.8" height="59" viewBox="0 0 57.8 59" fill="#150098"><defs><path id="a" d="M0 0h57.799v59H0z"/></defs><clipPath id="b"><use xlink:href="#a" overflow="visible"/></clipPath><path clip-path="url(#b)" d="M29.399 18.885v-4.748a.5.5 0 0 0-1 0v4.748a.5.5 0 0 0 1 0M19.022 19.622a.5.5 0 0 0 0 .707l3.628 3.628a.5.5 0 1 0 .707-.707l-3.628-3.628a.5.5 0 0 0-.707 0M10.047 29.5a.5.5 0 0 0 .5.5h12.844a.5.5 0 0 0 0-1H10.547a.5.5 0 0 0-.5.5M19.923 38.477a.5.5 0 0 0-.707 0l-2.188 2.188a.5.5 0 0 0 .707.707l2.188-2.188a.5.5 0 0 0 0-.707M29.399 44.863v-4.237a.5.5 0 0 0-1 0v4.237a.5.5 0 1 0 1 0M40.771 41.371a.5.5 0 0 0 0-.707l-2.194-2.195a.5.5 0 0 0-.707.707l2.194 2.195a.501.501 0 0 0 .707 0M33.948 29.5a.5.5 0 0 0 .5.5h12.805a.5.5 0 0 0 0-1H34.448a.5.5 0 0 0-.5.5M38.07 19.622l-3.638 3.638a.5.5 0 0 0 .707.707l3.638-3.638a.5.5 0 0 0-.707-.707M27.065 7.766c-1.077.218-2.551 1.263-3.427 2.432-.325.433-.395 1.051-.17 1.501.2.399.594.628 1.083.628h8.697c.489 0 .883-.229 1.083-.628.226-.45.155-1.068-.17-1.501-.876-1.169-2.35-2.214-3.428-2.432-.057-.011-.241-.061-.284-.238a3.08 3.08 0 0 1-.028-.421 4.594 4.594 0 0 0 1.138-1.629c.266-.159.472-.492.551-.93.073-.443-.013-.827-.215-1.063-.001-.85-.027-1.647-.365-2.281C31.099.396 30.242.002 28.885 0c-1.328.002-2.184.396-2.615 1.203-.336.63-.364 1.421-.365 2.281-.203.237-.288.622-.214 1.072.075.413.266.735.541.898a4.588 4.588 0 0 0 1.146 1.652 3.133 3.133 0 0 1-.028.421c-.043.178-.228.227-.285.239m1.127-1.282c-.47-.367-.88-.955-1.097-1.572-.061-.176-.189-.3-.355-.33a.767.767 0 0 1-.069-.423.538.538 0 0 0 .235-.442c-.002-.844-.004-1.573.246-2.043.167-.313.516-.672 1.76-.674 1.219.002 1.568.361 1.735.674.25.47.248 1.199.246 2.063 0 .178.092.336.234.426a.742.742 0 0 1-.075.429.5.5 0 0 0-.349.32c-.217.617-.627 1.205-1.097 1.572a.528.528 0 0 0-.191.423c.012.426.021.695.063.856.121.5.525.876 1.058.983.822.166 2.115 1.105 2.825 2.051.106.143.126.354.076.455-.014.024-.038.074-.189.074h-8.697c-.151 0-.176-.05-.189-.074-.05-.101-.031-.312.076-.455.71-.946 2.004-1.885 2.824-2.051.533-.106.938-.483 1.058-.978.042-.165.051-.434.063-.875a.498.498 0 0 0-.191-.409M10.564 14.601c-1.077.217-2.551 1.262-3.428 2.431-.325.434-.395 1.052-.17 1.502.2.399.595.627 1.084.627h8.696c.489 0 .884-.228 1.083-.627.226-.451.156-1.068-.169-1.502-.877-1.169-2.351-2.214-3.429-2.431-.056-.011-.241-.062-.283-.237a3.235 3.235 0 0 1-.029-.423 4.579 4.579 0 0 0 1.137-1.629c.267-.159.472-.492.551-.929.073-.443-.012-.827-.215-1.063 0-.851-.027-1.648-.365-2.281-.431-.808-1.286-1.202-2.643-1.204-1.329.002-2.184.396-2.615 1.204-.336.629-.365 1.42-.365 2.281-.203.237-.288.622-.214 1.071.074.414.266.735.541.899a4.595 4.595 0 0 0 1.145 1.651 3.001 3.001 0 0 1-.028.422c-.043.178-.228.227-.284.238m1.126-1.282c-.47-.367-.879-.955-1.096-1.572-.062-.175-.189-.299-.355-.329a.734.734 0 0 1-.069-.424.534.534 0 0 0 .234-.442c-.002-.844-.004-1.573.247-2.043.167-.313.515-.672 1.759-.674 1.22.002 1.568.361 1.735.674.251.47.249 1.199.247 2.063a.497.497 0 0 0 .235.426.728.728 0 0 1-.076.43.5.5 0 0 0-.349.319c-.217.618-.627 1.205-1.096 1.572a.534.534 0 0 0-.192.424c.012.425.022.694.062.856.122.499.527.876 1.058.982.822.166 2.116 1.105 2.826 2.051.107.143.125.354.075.455-.012.024-.037.074-.189.074H8.05c-.152 0-.177-.05-.189-.074-.05-.101-.032-.312.075-.455.71-.946 2.004-1.885 2.825-2.051.532-.106.938-.483 1.058-.978.042-.168.051-.442.063-.877a.501.501 0 0 0-.192-.407M3.73 31.103c-1.078.217-2.552 1.263-3.429 2.432-.325.434-.395 1.051-.17 1.502.2.397.595.627 1.084.627h8.696c.489 0 .884-.229 1.084-.627.225-.45.155-1.068-.17-1.502-.877-1.169-2.351-2.215-3.428-2.432-.056-.011-.241-.061-.284-.238a3.022 3.022 0 0 1-.028-.422 4.573 4.573 0 0 0 1.136-1.628c.267-.159.473-.492.551-.929.074-.444-.012-.827-.214-1.063-.001-.851-.027-1.647-.365-2.281-.431-.808-1.287-1.201-2.644-1.204-1.329.003-2.184.396-2.615 1.204-.336.629-.365 1.421-.365 2.281-.203.237-.288.622-.214 1.071.075.413.266.735.541.899a4.572 4.572 0 0 0 1.146 1.65 3.287 3.287 0 0 1-.028.422c-.043.176-.228.227-.284.238m1.125-1.282c-.47-.367-.879-.954-1.096-1.572-.061-.175-.189-.299-.355-.329a.768.768 0 0 1-.069-.424.534.534 0 0 0 .234-.442c-.002-.844-.004-1.573.247-2.042.167-.313.515-.673 1.759-.675 1.22.002 1.569.362 1.736.675.25.47.248 1.199.246 2.063a.5.5 0 0 0 .235.425.728.728 0 0 1-.075.43.5.5 0 0 0-.35.319c-.217.617-.626 1.205-1.096 1.572a.564.564 0 0 0-.191.439c.012.418.021.682.061.841.122.499.527.876 1.059.982.821.166 2.115 1.104 2.825 2.051.107.143.125.354.075.455-.012.024-.037.074-.189.074H1.215c-.152 0-.177-.05-.189-.074-.05-.101-.032-.313.075-.455.71-.946 2.004-1.885 2.825-2.051.532-.106.938-.483 1.059-.98.04-.164.05-.432.062-.874a.498.498 0 0 0-.192-.408M10.564 47.604c-1.078.218-2.552 1.263-3.428 2.431-.325.435-.395 1.052-.17 1.502.2.399.595.628 1.084.628h8.696c.489 0 .884-.229 1.084-.628.225-.451.155-1.067-.17-1.501-.876-1.169-2.35-2.214-3.429-2.432-.056-.011-.241-.063-.283-.237a3.235 3.235 0 0 1-.029-.423 4.579 4.579 0 0 0 1.137-1.629c.267-.158.472-.492.551-.929.073-.444-.012-.827-.215-1.063 0-.851-.027-1.647-.365-2.281-.431-.808-1.286-1.201-2.643-1.204-1.329.003-2.184.396-2.615 1.204-.336.629-.365 1.421-.365 2.281-.203.237-.288.622-.214 1.071.074.413.266.734.541.898a4.577 4.577 0 0 0 1.145 1.651 3.001 3.001 0 0 1-.028.422c-.043.178-.228.229-.284.239m1.126-1.282c-.47-.367-.879-.955-1.096-1.572-.062-.176-.189-.3-.356-.329a.726.726 0 0 1-.068-.424.534.534 0 0 0 .234-.441c-.002-.845-.004-1.573.247-2.042.167-.313.515-.674 1.759-.676 1.22.002 1.568.362 1.735.676.251.469.249 1.197.247 2.063a.496.496 0 0 0 .235.425.735.735 0 0 1-.076.431.5.5 0 0 0-.349.318c-.217.617-.626 1.205-1.096 1.572a.534.534 0 0 0-.192.424c.012.425.022.694.062.856.121.499.527.876 1.058.981.823.166 2.116 1.106 2.826 2.053.107.142.125.353.075.453-.012.024-.037.075-.189.075H8.05c-.152 0-.177-.051-.189-.075-.05-.101-.032-.312.075-.454.71-.945 2.004-1.886 2.825-2.052.532-.105.938-.482 1.058-.978.042-.167.051-.442.063-.877a.501.501 0 0 0-.192-.407M27.066 54.438c-1.078.218-2.551 1.264-3.428 2.433-.325.433-.395 1.051-.17 1.501.2.398.595.628 1.084.628h8.696c.488 0 .884-.229 1.084-.628.225-.45.154-1.068-.17-1.501-.877-1.169-2.351-2.215-3.429-2.433-.056-.011-.24-.061-.284-.237-.017-.081-.022-.239-.028-.422a4.579 4.579 0 0 0 1.137-1.629c.267-.158.473-.491.552-.93.072-.443-.013-.826-.216-1.062 0-.852-.026-1.648-.365-2.281-.431-.809-1.285-1.202-2.643-1.204-1.329.002-2.184.396-2.615 1.204-.336.629-.365 1.42-.365 2.281-.203.236-.288.621-.214 1.07.074.413.266.735.541.898a4.567 4.567 0 0 0 1.146 1.651 3.1 3.1 0 0 1-.029.422c-.043.179-.228.229-.284.239m1.125-1.281c-.469-.366-.879-.954-1.096-1.571-.062-.176-.189-.3-.356-.33a.738.738 0 0 1-.068-.423.537.537 0 0 0 .234-.442c-.002-.844-.004-1.573.247-2.043.167-.313.515-.672 1.759-.674 1.22.002 1.567.361 1.734.674.251.47.249 1.199.247 2.063a.497.497 0 0 0 .235.426.78.78 0 0 1-.075.429.502.502 0 0 0-.35.32c-.218.617-.627 1.205-1.097 1.571a.535.535 0 0 0-.191.424c.012.426.021.694.062.855.121.5.527.876 1.059.983.821.166 2.115 1.104 2.825 2.051.107.143.125.354.075.455-.01.024-.036.075-.187.075h-8.696c-.152 0-.177-.051-.189-.074-.05-.102-.032-.313.075-.455.71-.946 2.004-1.885 2.825-2.051.532-.107.938-.483 1.058-.979.041-.165.052-.434.063-.875a.502.502 0 0 0-.193-.409M41.054 52.165h8.695c.489 0 .884-.229 1.084-.627.226-.451.155-1.069-.17-1.502-.876-1.169-2.35-2.215-3.429-2.433-.055-.011-.24-.061-.283-.238a3.107 3.107 0 0 1-.028-.421 4.604 4.604 0 0 0 1.137-1.629c.267-.159.473-.492.551-.929.074-.444-.012-.828-.215-1.064 0-.851-.027-1.646-.365-2.28-.431-.808-1.286-1.201-2.643-1.203-1.329.002-2.185.396-2.615 1.203-.336.63-.365 1.421-.365 2.281-.203.236-.288.621-.214 1.071.075.413.266.734.54.898.26.635.664 1.218 1.146 1.65a3.36 3.36 0 0 1-.026.422c-.043.178-.229.228-.285.238-1.078.218-2.552 1.264-3.428 2.433-.325.433-.396 1.051-.17 1.501.198.4.593.629 1.083.629m-.115-1.529c.709-.946 2.003-1.885 2.825-2.051.531-.107.938-.483 1.059-.98.04-.164.05-.433.063-.874a.498.498 0 0 0-.192-.408c-.47-.366-.879-.954-1.096-1.571-.063-.177-.189-.3-.355-.33a.777.777 0 0 1-.069-.423.538.538 0 0 0 .234-.442c-.002-.844-.004-1.573.247-2.043.167-.313.515-.672 1.759-.674 1.22.002 1.568.36 1.735.674.25.47.249 1.199.247 2.063a.5.5 0 0 0 .234.426.66.66 0 0 1-.005.215.821.821 0 0 1-.069.214.505.505 0 0 0-.351.32c-.217.617-.626 1.205-1.096 1.571a.501.501 0 0 0-.192.407c.013.435.021.709.063.872.121.5.526.876 1.058.983.822.166 2.116 1.104 2.826 2.051.107.143.125.354.075.455-.012.023-.038.074-.189.074h-8.695c-.152 0-.178-.051-.189-.074-.052-.102-.034-.313.073-.455M55.445 27.885c.074-.444-.012-.828-.214-1.064-.001-.85-.027-1.648-.365-2.281-.431-.807-1.287-1.201-2.644-1.203-1.329.002-2.185.396-2.616 1.204-.335.629-.364 1.421-.364 2.281-.203.236-.288.621-.214 1.071.075.413.266.735.541.899a4.582 4.582 0 0 0 1.145 1.65c-.004.179-.01.34-.026.422-.043.177-.229.227-.285.238-1.077.217-2.551 1.263-3.428 2.432-.325.434-.396 1.051-.17 1.501.199.399.595.628 1.084.628h8.695c.489 0 .885-.229 1.084-.628.226-.45.155-1.067-.17-1.501-.876-1.169-2.351-2.215-3.429-2.432-.055-.012-.24-.062-.283-.237a3.457 3.457 0 0 1-.028-.423 4.562 4.562 0 0 0 1.137-1.628c.266-.159.472-.492.55-.929m-.985-.17a.821.821 0 0 1-.069.214.505.505 0 0 0-.351.32c-.216.617-.626 1.205-1.096 1.571a.535.535 0 0 0-.192.425c.014.425.022.694.063.855.122.5.526.876 1.059.982.821.165 2.115 1.105 2.825 2.052.107.143.125.353.075.453-.012.024-.037.075-.189.075H47.89c-.152 0-.178-.051-.189-.075-.05-.101-.032-.311.075-.453.71-.946 2.004-1.887 2.825-2.052.531-.106.938-.482 1.058-.979.041-.163.051-.427.063-.875a.5.5 0 0 0-.192-.409c-.469-.366-.879-.954-1.096-1.571-.062-.176-.189-.3-.355-.33a.763.763 0 0 1-.069-.423.533.533 0 0 0 .234-.441c-.002-.844-.004-1.574.247-2.044.167-.313.515-.672 1.759-.674 1.221.002 1.568.361 1.735.674.251.47.249 1.199.247 2.063 0 .178.092.336.234.426a.702.702 0 0 1-.006.216M43.568 14.601c-1.078.217-2.552 1.262-3.429 2.431-.325.434-.396 1.051-.17 1.502.199.399.595.627 1.083.627h8.696c.489 0 .884-.228 1.084-.627.226-.45.155-1.068-.17-1.502-.877-1.169-2.351-2.214-3.428-2.431-.056-.011-.241-.061-.284-.239a2.972 2.972 0 0 1-.028-.421 4.583 4.583 0 0 0 1.137-1.629c.267-.158.473-.492.551-.929.074-.444-.012-.827-.215-1.064 0-.85-.027-1.647-.365-2.28-.431-.808-1.286-1.202-2.644-1.204-1.328.002-2.184.396-2.614 1.204-.336.629-.365 1.421-.365 2.281-.203.237-.288.622-.214 1.071.075.413.266.735.541.899a4.585 4.585 0 0 0 1.146 1.651c-.005.18-.012.34-.027.421-.043.177-.229.228-.285.239m1.125-1.282c-.469-.367-.879-.954-1.096-1.572-.063-.175-.189-.299-.355-.329a.768.768 0 0 1-.069-.424.533.533 0 0 0 .234-.442c-.002-.844-.004-1.573.247-2.043.167-.313.515-.672 1.759-.674 1.22.002 1.568.361 1.735.674.251.47.249 1.199.247 2.063a.499.499 0 0 0 .234.426.784.784 0 0 1-.074.43.502.502 0 0 0-.351.319c-.217.617-.626 1.205-1.096 1.572a.504.504 0 0 0-.192.407c.012.435.021.709.063.872.121.5.526.877 1.059.983.821.166 2.115 1.105 2.825 2.051.106.143.125.354.075.455-.013.024-.037.074-.189.074h-8.696c-.151 0-.177-.05-.188-.074-.05-.101-.032-.312.075-.455.71-.946 2.004-1.885 2.825-2.051.531-.106.937-.483 1.059-.98.04-.164.05-.432.062-.874a.5.5 0 0 0-.193-.408"/><path clip-path="url(#b)" d="M36.723 37.585c.294-.589.201-1.399-.228-1.972-1.246-1.659-3.411-3.2-4.929-3.507-.314-.063-.541-.261-.607-.535-.025-.099-.039-.462-.049-.782.732-.635 1.35-1.514 1.732-2.473.368-.177.659-.631.77-1.244.104-.626-.025-1.154-.321-1.439.001-1.265-.025-2.45-.512-3.359-.602-1.126-1.763-1.651-3.7-1.655-1.895.004-3.058.529-3.658 1.655-.483.904-.513 2.079-.512 3.359-.296.285-.425.815-.321 1.446.105.581.376 1.022.758 1.211.383.97 1.004 1.859 1.743 2.5-.009.312-.023.683-.049.787-.066.27-.293.468-.607.53-1.517.307-3.682 1.848-4.929 3.508-.428.571-.522 1.382-.228 1.971.253.506.76.796 1.389.796h12.869c.63-.001 1.136-.291 1.389-.797m-14.752-.447c-.125-.251-.067-.657.133-.923 1.099-1.465 3.04-2.868 4.326-3.127.694-.141 1.224-.628 1.38-1.272.055-.215.069-.604.086-1.244a.5.5 0 0 0-.192-.407c-.729-.57-1.365-1.481-1.7-2.437a.5.5 0 0 0-.433-.333c-.056-.063-.151-.228-.198-.486-.044-.267-.008-.457.024-.534a.548.548 0 0 0 .312-.494c-.003-1.282-.006-2.389.393-3.136.258-.482.825-1.122 2.816-1.126 1.954.004 2.522.644 2.779 1.126.398.747.396 1.854.393 3.167 0 .207.127.39.313.465.031.078.066.266.023.525-.047.264-.143.43-.199.493a.502.502 0 0 0-.432.333c-.336.955-.971 1.866-1.701 2.437a.546.546 0 0 0-.19.432c.017.615.03 1.005.084 1.216.158.648.687 1.136 1.381 1.276 1.286.259 3.227 1.662 4.326 3.126.199.267.259.673.133.924-.03.06-.121.243-.494.243H22.465c-.372-.001-.464-.185-.494-.244"/></svg>