<svg xmlns="http://www.w3.org/2000/svg" xmlns:xlink="http://www.w3.org/1999/xlink" width="91.644" height="81.5" viewBox="0 0 91.644 81.5"><defs><path id="a" d="M0 0h91.643v81.5H0z"/></defs><clipPath id="b"><use xlink:href="#a" overflow="visible"/></clipPath><path clip-path="url(#b)" d="M38.297 31.633c5.229-5.881 4.367-16.179 4.251-17.334C42.12 3.809 35.109.091 29.236.091c-.154 0-.306.003-.455.009h-.075a11.372 11.372 0 0 0-.456-.009c-5.913 0-12.998 3.708-13.508 14.157-.046.472-1.04 11.328 4.255 17.395 2.286 2.559 5.561 3.964 9.467 4.057h.379c3.891-.092 7.162-1.499 9.454-4.067M20.4 30.469c-4.478-5.062-4.001-14.188-3.858-15.987l.002-.087C17.084 2.708 25.712 1.8 28.343 1.8h.5c.076-.006.246-.012.446-.012 10.567 0 11.561 10.47 11.653 12.569l.001.141c.144 1.761.636 10.893-3.851 15.965-1.954 2.279-4.73 3.437-8.249 3.437h-.2c-3.421 0-6.194-1.155-8.243-3.431M70.943 14.1c-.746 0-1.399.654-1.399 1.4 0 .798.602 1.4 1.399 1.4.746 0 1.4-.654 1.4-1.4s-.654-1.4-1.4-1.4M61.743 14.1c-.746 0-1.399.654-1.399 1.4 0 .776.554 1.407 1.235 1.407l.164-.007c.746 0 1.4-.654 1.4-1.4s-.654-1.4-1.4-1.4M23.607 77.253l4.476 3.979c.256.187.452.269.66.269.111 0 .393-.077.677-.283l4.45-4.056c.181-.183.273-.435.273-.762l-1.518-32.57.281-.305c.954-1.041 1.437-2.294 1.437-3.726 0-.433-.344-.9-.9-.9-.432 0-.899.344-.899.9 0 .995-.458 2.071-1.193 2.807-.119.118-.317.317-.607.424-.523.353-1.271.569-2.001.569a3.804 3.804 0 0 1-3.8-3.8c0-.433-.344-.9-.899-.9-.547 0-.901.353-.901.9 0 1.291.428 2.555 1.174 3.467l.242.296-.017.382-1.393 32.336c.195.66.322.865.395.919l.063.054zm1.437-1.497l1.351-30.765 1.363.272c.367.076.655.137.985.137l.197.019c.25.051.5-.006.686-.067l1.258-.419 1.379 31.187-3.606 3.328-3.634-3.215.021-.477zM19.292 39.441l.138-.097a.867.867 0 0 0 .344-.561.743.743 0 0 0-.13-.583c-.195-.29-.461-.444-.758-.444a.725.725 0 0 0-.441.143l-.268.2h-.058l-.076.048c-4.119 2.598-8.173 4.422-12.05 5.421C1.784 44.643-.329 48.61.042 54.74c.002 3.882.454 5.532.724 6.172.144.382.419.588.778.588.211 0 .277-.009.298-.014.364-.163.684-.589.473-1.115-.515-1.159-.571-4.213-.571-5.472V54.7c-.199-5.349 1.364-8.504 4.646-9.368 6.7-1.768 12.336-5.432 12.902-5.891M51.696 43.568c-3.877-.998-7.932-2.822-12.053-5.421l-.354-.216a.973.973 0 0 0-.531-.175c-.273 0-.509.138-.683.398-.221.355-.091.976.268 1.245l.071.057c.605.438 5.977 4.174 12.869 5.872 4.731 1.246 4.835 7.001 4.66 9.418l.001.153c0 .964-.041 4.204-.567 5.46-.113.375.031.909.538 1.111.052.022.116.029.328.029.296 0 .639-.261.781-.595.183-.498.618-2.116.618-6.105.374-6.173-1.738-10.156-5.946-11.231M80.144 14.1c-.746 0-1.4.654-1.4 1.4 0 .798.603 1.4 1.4 1.4.746 0 1.399-.654 1.399-1.4s-.653-1.4-1.399-1.4"/><path clip-path="url(#b)" d="M91.644 5.8c0-3.198-2.602-5.8-5.8-5.8h-29.8c-3.141.085-5.7 2.688-5.7 5.8V24c0 3.198 2.601 5.8 5.8 5.8h3v7.8c0 .394.152.634.493.781.167.081.3.116.329.12.185-.001.376-.081.645-.277L69.34 29.8h16.504c3.198 0 5.8-2.602 5.8-5.8V5.8zM89.943 24c0 2.206-1.794 4-4 4H69.044c-.207 0-.4.08-.667.275l-7.533 7.281v-6.657c0-.28-.128-.512-.208-.593-.154-.155-.262-.206-.592-.206h-3.801c-2.205 0-4-1.794-4-4V5.8c0-2.206 1.795-4 4-4h29.801c2.078 0 3.899 1.869 3.899 4V24z"/></svg>